<svg xmlns="http://www.w3.org/2000/svg" xmlns:xlink="http://www.w3.org/1999/xlink" viewBox="0 0 900 300" width="100%" height="100%">
  <defs>
    <style>
      @import url('https://fonts.googleapis.com/css2?family=Righteous&amp;display=swap');
      
      .font-unique { 
        font-family: 'Righteous', 'Arial Black', sans-serif;
      }
      .font-tagline {
        font-family: 'Montserrat', 'Segoe UI', sans-serif;
        font-weight: 700;
        letter-spacing: 0.4em;
      }
    </style>

    <!-- Modern Gradients -->
    <linearGradient id="grad-red" x1="0%" y1="0%" x2="100%" y2="100%">
      <stop offset="0%" stop-color="#ff3366" />
      <stop offset="100%" stop-color="#cc0033" />
    </linearGradient>
    <linearGradient id="grad-yellow" x1="0%" y1="0%" x2="100%" y2="100%">
      <stop offset="0%" stop-color="#ffcc00" />
      <stop offset="100%" stop-color="#e69900" />
    </linearGradient>
    <linearGradient id="grad-blue" x1="0%" y1="0%" x2="100%" y2="100%">
      <stop offset="0%" stop-color="#33ccff" />
      <stop offset="100%" stop-color="#0066ff" />
    </linearGradient>
    <linearGradient id="grad-green" x1="0%" y1="0%" x2="100%" y2="100%">
      <stop offset="0%" stop-color="#00e676" />
      <stop offset="100%" stop-color="#009933" />
    </linearGradient>
    <linearGradient id="grad-gold" x1="0%" y1="0%" x2="100%" y2="100%">
      <stop offset="0%" stop-color="#ffd54f" />
      <stop offset="100%" stop-color="#ff9900" />
    </linearGradient>
    <linearGradient id="grad-border" x1="0%" y1="0%" x2="100%" y2="100%">
      <stop offset="0%" stop-color="#3a6096" />
      <stop offset="100%" stop-color="#1b3664" />
    </linearGradient>

    <!-- Teardrop Leaf Base -->
    <path id="leaf-fill" d="M 0 0 C 45 -15, 50 -85, 0 -90 C -50 -85, -45 -15, 0 0 Z" stroke="none" />
    <path id="leaf-outline" d="M 0 0 C 45 -15, 50 -85, 0 -90 C -50 -85, -45 -15, 0 0 Z" fill="none" stroke="url(#grad-border)" stroke-width="12" stroke-linejoin="round" />

    <!-- Material Design SVG Icons -->
    <g id="icon-suitcase" transform="translate(-18, -18) scale(1.5)" fill="#ffffff">
      <path d="M 7 4 V 2 H 17 V 4 H 20 A 2 2 0 0 1 22 6 V 19 A 2 2 0 0 1 20 21 H 4 A 2 2 0 0 1 2 19 V 6 A 2 2 0 0 1 4 4 H 7 M 9 4 H 15 V 2 H 9 V 4 M 8 18 H 10 V 7 H 8 V 18 M 14 18 H 16 V 7 H 14 V 18" />
    </g>

    <g id="icon-airplane" transform="translate(-18, -18) scale(1.5)" fill="#ffffff">
      <path d="M 21 16 V 14 L 13 9 V 3.5 A 1.5 1.5 0 0 0 10 3.5 V 9 L 2 14 V 16 L 10 13.5 V 19 L 8 20.5 V 22 L 11.5 21 L 15 22 V 20.5 L 13 19 V 13.5 L 21 16 Z" />
    </g>

    <g id="icon-palm" transform="translate(-18, -18) scale(1.5)" fill="#ffffff">
      <path d="M12 21 C12 16, 14 11, 14 11 C10 13, 7 15, 4 15 C6 12, 10 9, 14 9 C11 7, 7 5, 4 4 C8 5, 12 7, 15 9 C16 6, 17 3, 17 0 C18 4, 19 8, 17 10 C21 9, 25 7, 28 8 C25 10, 21 11, 18 11 C23 12, 26 14, 27 16 C23 15, 19 14, 16 13 C16 15, 15 18, 15 21 Z" />
    </g>

    <g id="icon-mountain" transform="translate(-18, -18) scale(1.5)" fill="#ffffff">
      <path d="M 14 6 L 4 18 H 20 L 14 6 Z M 14 10 L 17 14 H 11 L 14 10 Z M 5 18 L 9 13 L 12 18 H 5 Z" />
    </g>
  </defs>

  <!-- Dark Background -->
  <rect width="900" height="300" fill="#151b24"/>

  <!-- Clover Logo Icon (Centered vertically) -->
  <g transform="translate(140, 150)">
    <use xlink:href="#leaf-fill" fill="url(#grad-red)" transform="rotate(0)" />
    <use xlink:href="#leaf-fill" fill="url(#grad-yellow)" transform="rotate(270)" />
    <use xlink:href="#leaf-fill" fill="url(#grad-blue)" transform="rotate(180)" />
    <use xlink:href="#leaf-fill" fill="url(#grad-green)" transform="rotate(90)" />

    <use xlink:href="#leaf-outline" transform="rotate(0)" />
    <use xlink:href="#leaf-outline" transform="rotate(270)" />
    <use xlink:href="#leaf-outline" transform="rotate(180)" />
    <use xlink:href="#leaf-outline" transform="rotate(90)" />

    <circle cx="0" cy="0" r="10" fill="url(#grad-border)" />

    <use xlink:href="#icon-suitcase" x="0" y="-50" />
    <use xlink:href="#icon-airplane" x="-50" y="0" />
    <use xlink:href="#icon-palm" x="0" y="50" />
    <use xlink:href="#icon-mountain" x="50" y="0" />
  </g>

  <!-- MODERN SINGLE-LINE TYPOGRAPHY -->
  <g transform="translate(270, 175)">
    <!-- Locked widths using textLength to prevent overlaps in Inkscape when fallback fonts are used -->
    <text x="0" y="0" class="font-unique" font-size="70" fill="#ffffff" letter-spacing="4" textLength="260" lengthAdjust="spacingAndGlyphs">LEISURE</text>
    <text x="280" y="0" class="font-unique" font-size="70" fill="#3a6096" letter-spacing="4" textLength="150" lengthAdjust="spacingAndGlyphs">LOOP</text>
    
    <!-- Custom stylized 't' inside a red circle -->
    <g transform="translate(470, -23)">
      <!-- Circle Background -->
      <circle cx="0" cy="0" r="34" fill="url(#grad-red)" />
      
      <!-- Custom sweeping 't' paths in white -->
      <path d="M -12 20 C 5 20, 10 0, 10 -22 C 5 -10, -5 10, -18 15 Z" fill="#ffffff" />
      <path d="M -22 -2 L 5 -12 L 22 -6 L 0 2 Z" fill="#ffffff" />
    </g>

    <!-- Rest of the word 'rip' -->
    <text x="515" y="0" class="font-unique" font-size="70" fill="url(#grad-red)" letter-spacing="4" textLength="85" lengthAdjust="spacingAndGlyphs">rip</text>
    
    <!-- Tagline: EXPLORE MORE. EXPERIENCE MORE. -->
    <text x="5" y="45" class="font-tagline" font-size="14" fill="url(#grad-gold)">EXPLORE MORE. EXPERIENCE MORE.</text>
  </g>

</svg>
